<?xml version="1.0" encoding="utf-8"?>
<!-- Generator: Adobe Illustrator 27.4.0, SVG Export Plug-In . SVG Version: 6.00 Build 0)  -->
<svg version="1.1" id="Layer_1" xmlns="http://www.w3.org/2000/svg" xmlns:xlink="http://www.w3.org/1999/xlink" x="0px" y="0px"
	 viewBox="0 0 284 373" style="enable-background:new 0 0 284 373;" xml:space="preserve">
<g>
	<g>
		<circle cx="143.47" cy="187.11" r="41.29"/>
	</g>
	<path d="M262.11,67.65c-6.76-2.87-13.82-5.27-21.15-7.15C163.99,40.7,84.67,85.65,62.11,161.87c-2.15,7.26-3.72,14.55-4.73,21.83
		c-2.12,15.23-23.69,16.15-27.09,1.14c-5.42-23.93-4.97-49.57,2.54-74.85C55.42,33.91,134.61-10.98,211.49,8.72
		c25.55,6.55,47.78,19.32,65.52,36.27C288.14,55.62,276.28,73.66,262.11,67.65z"/>
	<path d="M22.73,305.99c6.76,2.87,13.82,5.27,21.15,7.15c76.98,19.8,156.3-25.15,178.85-101.37c2.15-7.26,3.72-14.55,4.73-21.83
		c2.12-15.23,23.69-16.15,27.09-1.14c5.42,23.93,4.97,49.57-2.54,74.85c-22.6,76.09-101.78,120.97-178.66,101.27
		c-25.55-6.55-47.78-19.32-65.52-36.27C-3.29,318.03,8.57,299.99,22.73,305.99z"/>
</g>
</svg>
