<?xml version="1.0" encoding="UTF-8" standalone="no"?>
<!-- Created with Inkscape (http://www.inkscape.org/) -->

<svg
   width="1500"
   height="1500"
   viewBox="0 0 396.87499 396.875"
   version="1.1"
   id="svg1"
   inkscape:export-filename="svs_logo_2025_2.png"
   inkscape:export-xdpi="96"
   inkscape:export-ydpi="96"
   inkscape:version="1.4.2 (f4327f4, 2025-05-13)"
   sodipodi:docname="svs_logo_2025_2.svg"
   xmlns:inkscape="http://www.inkscape.org/namespaces/inkscape"
   xmlns:sodipodi="http://sodipodi.sourceforge.net/DTD/sodipodi-0.dtd"
   xmlns="http://www.w3.org/2000/svg"
   xmlns:svg="http://www.w3.org/2000/svg">
  <sodipodi:namedview
     id="namedview1"
     pagecolor="#505050"
     bordercolor="#eeeeee"
     borderopacity="1"
     inkscape:showpageshadow="0"
     inkscape:pageopacity="0"
     inkscape:pagecheckerboard="0"
     inkscape:deskcolor="#505050"
     inkscape:document-units="mm"
     inkscape:zoom="0.36302259"
     inkscape:cx="581.23105"
     inkscape:cy="772.67919"
     inkscape:window-width="1920"
     inkscape:window-height="1017"
     inkscape:window-x="-8"
     inkscape:window-y="-8"
     inkscape:window-maximized="1"
     inkscape:current-layer="layer1" />
  <defs
     id="defs1">
    <rect
       x="523.38341"
       y="639.07869"
       width="162.48142"
       height="121.99861"
       id="rect17" />
  </defs>
  <g
     inkscape:label="Layer 1"
     inkscape:groupmode="layer"
     id="layer1">
    <path
       id="path1"
       style="fill:#cf4834;fill-opacity:1;stroke-width:4.36679;stroke-linecap:square;stroke-linejoin:round"
       d="M 198.4375,86.468624 A 190.95459,111.96883 0 0 0 7.4827474,198.4375 190.95459,111.96883 0 0 0 198.4375,310.40638 190.95459,111.96883 0 0 0 389.39225,198.4375 190.95459,111.96883 0 0 0 198.4375,86.468624 Z m 0,7.288444 A 154.73322,104.68048 0 0 1 353.17069,198.4375 154.73322,104.68048 0 0 1 198.4375,303.11793 154.73322,104.68048 0 0 1 43.704309,198.4375 154.73322,104.68048 0 0 1 198.4375,93.757068 Z" />
    <text
       xml:space="preserve"
       style="font-size:152.866px;line-height:1.25;font-family:'Cöntgen Kanzley Aufrecht';-inkscape-font-specification:'Cöntgen Kanzley Aufrecht';text-align:center;text-anchor:middle;fill:#cf4834;fill-opacity:1;stroke-width:22.0253"
       x="198.40018"
       y="258.85974"
       id="text19"><tspan
         sodipodi:role="line"
         id="tspan19"
         style="font-style:normal;font-variant:normal;font-weight:normal;font-stretch:normal;font-size:152.866px;font-family:impact;-inkscape-font-specification:impact;fill:#cf4834;fill-opacity:1;stroke-width:22.0253"
         x="198.40018"
         y="258.85974">SVS</tspan></text>
  </g>
</svg>
