<?xml version="1.0" encoding="UTF-8" standalone="no"?>
<!-- Created with Inkscape (http://www.inkscape.org/) -->

<svg
   width="1500"
   height="1500"
   viewBox="0 0 396.87499 396.875"
   version="1.1"
   id="svg1"
   xmlns="http://www.w3.org/2000/svg"
   xmlns:svg="http://www.w3.org/2000/svg">
  <defs
     id="defs1" />
  <g
     id="layer1">
    <rect
       style="fill:#ffffff;fill-opacity:1;stroke-width:3.70071;stroke-linecap:square;stroke-linejoin:round"
       id="rect1"
       width="396.875"
       height="396.875"
       x="-3.907985e-14"
       y="-2.8421709e-14" />
    <g
       id="g19"
       style="fill:#000000;fill-opacity:1">
      <path
         id="path1"
         style="fill:#000000;fill-opacity:1;stroke-width:4.36679;stroke-linecap:square;stroke-linejoin:round"
         d="M 198.4375,86.468624 A 190.95459,111.96883 0 0 0 7.4827474,198.4375 190.95459,111.96883 0 0 0 198.4375,310.40638 190.95459,111.96883 0 0 0 389.39225,198.4375 190.95459,111.96883 0 0 0 198.4375,86.468624 Z m 0,7.288444 A 154.73322,104.68048 0 0 1 353.17069,198.4375 154.73322,104.68048 0 0 1 198.4375,303.11793 154.73322,104.68048 0 0 1 43.704309,198.4375 154.73322,104.68048 0 0 1 198.4375,93.757068 Z" />
      <text
         xml:space="preserve"
         id="text17"
         style="font-size:63.3506px;line-height:1.25;font-family:'Cöntgen Kanzley Aufrecht';-inkscape-font-specification:'Cöntgen Kanzley Aufrecht';text-align:center;word-spacing:0px;text-anchor:middle;white-space:pre;fill:#000000;fill-opacity:1;stroke-width:1.58377"
         x="197.15552"
         y="194.70499"><tspan
           id="tspan17"
           style="font-style:normal;font-variant:normal;font-weight:normal;font-stretch:condensed;font-family:Impact;-inkscape-font-specification:'Impact Condensed';word-spacing:0px;fill:#000000;fill-opacity:1;stroke-width:1.58377"
           dy="0 0 0 0 0 0 0 0 0 -37.671841"><tspan
   style="letter-spacing:-1.66122px;fill:#000000;fill-opacity:1;stroke-width:1.58377"
   id="tspan18"
   dx="0">SAMUEL V</tspan>
SERRANO</tspan></text>
    </g>
  </g>
</svg>
